<svg width="173" height="66" viewBox="0 0 173 66" fill="none" xmlns="http://www.w3.org/2000/svg">
<circle cx="33" cy="33" r="32" stroke="black" stroke-width="1.66667"/>
<circle cx="26.6" cy="32.9999" r="25.6" stroke="black" stroke-width="1.66667"/>
<circle cx="20.2" cy="32.9998" r="19.2" stroke="black" stroke-width="1.66667"/>
<circle cx="13.8" cy="33.0002" r="12.8" stroke="black" stroke-width="1.66667"/>
<circle cx="7.4" cy="33.0001" r="6.4" stroke="black" stroke-width="1.66667"/>
<path d="M90.392 41V24.2H95.816C101.144 24.2 103.76 27.224 103.76 32.6C103.76 37.952 101.144 41 95.816 41H90.392ZM92.36 39.248H95.648C99.896 39.248 101.768 37.088 101.768 32.6C101.768 28.112 99.896 25.952 95.648 25.952H92.36V39.248ZM111.589 41.24C108.493 41.24 105.589 39.2 105.589 34.76C105.589 30.32 108.493 28.28 111.589 28.28C114.685 28.28 117.589 30.32 117.589 34.76C117.589 39.2 114.685 41.24 111.589 41.24ZM107.413 34.76C107.413 38.12 109.405 39.608 111.589 39.608C113.749 39.608 115.741 38.12 115.741 34.76C115.741 31.4 113.749 29.888 111.589 29.888C109.405 29.888 107.413 31.4 107.413 34.76ZM119.759 45.56V28.52H121.679V30.584C122.543 29.072 124.247 28.28 126.095 28.28C128.975 28.28 131.711 30.248 131.711 34.76C131.711 39.248 128.975 41.24 126.095 41.24C124.247 41.24 122.543 40.424 121.679 38.912V45.56H119.759ZM121.583 34.76C121.583 38.072 123.623 39.608 125.735 39.608C127.871 39.608 129.887 38.072 129.887 34.76C129.887 31.424 127.871 29.888 125.735 29.888C123.623 29.888 121.583 31.424 121.583 34.76ZM133.869 45.56V28.52H135.789V30.584C136.653 29.072 138.357 28.28 140.205 28.28C143.085 28.28 145.821 30.248 145.821 34.76C145.821 39.248 143.085 41.24 140.205 41.24C138.357 41.24 136.653 40.424 135.789 38.912V45.56H133.869ZM135.693 34.76C135.693 38.072 137.733 39.608 139.845 39.608C141.981 39.608 143.997 38.072 143.997 34.76C143.997 31.424 141.981 29.888 139.845 29.888C137.733 29.888 135.693 31.424 135.693 34.76ZM147.978 41V24.2H149.898V41H147.978ZM157.993 41.24C154.561 41.24 152.065 39.176 152.065 34.784C152.065 30.248 154.705 28.28 157.897 28.28C161.113 28.28 163.465 30.296 163.465 34.472C163.465 34.88 163.441 35.12 163.393 35.36H153.913C154.057 38.288 155.497 39.704 158.017 39.704C159.553 39.704 160.945 39.2 161.545 37.496H163.297C162.481 40.256 160.369 41.24 157.993 41.24ZM153.913 33.896H161.617C161.593 31.28 160.177 29.792 157.873 29.792C155.689 29.792 154.105 31.112 153.913 33.896ZM167.546 34.424V41H165.626V28.52H167.546V31.304H167.594C167.93 30.008 169.106 28.424 171.53 28.424C171.842 28.424 172.178 28.448 172.466 28.544V30.176C172.154 30.128 171.866 30.104 171.554 30.104C169.034 30.104 167.546 31.76 167.546 34.424Z" fill="black"/>
</svg>
