<svg width="48" height="48" viewBox="0 0 48 48" fill="none" xmlns="http://www.w3.org/2000/svg">
<g clip-path="url(#clip0_273_520)">
<path d="M24.0002 0C10.747 0 0 11.0169 0 24.6076C0 35.4799 6.87679 44.7039 16.4128 47.9577C17.6123 48.1855 18.0526 47.4239 18.0526 46.7739C18.0526 46.1872 18.0304 44.2487 18.02 42.1925C11.3431 43.6811 9.93424 39.2891 9.93424 39.2891C8.84249 36.4448 7.26945 35.6885 7.26945 35.6885C5.09192 34.1613 7.43359 34.1926 7.43359 34.1926C9.84363 34.3662 11.1126 36.7285 11.1126 36.7285C13.2532 40.4904 16.7272 39.4028 18.0967 38.7741C18.3121 37.1836 18.9341 36.0981 19.6205 35.4836C14.2897 34.8613 8.6859 32.7513 8.6859 23.3224C8.6859 20.6358 9.62345 18.4406 11.1587 16.7174C10.9095 16.0976 10.088 13.5947 11.3912 10.2052C11.3912 10.2052 13.4066 9.54386 17.993 12.7276C19.9074 12.1824 21.9606 11.9089 24.0002 11.8996C26.0398 11.9089 28.0946 12.1824 30.0126 12.7276C34.5934 9.54386 36.606 10.2052 36.606 10.2052C37.9123 13.5947 37.0905 16.0976 36.8413 16.7174C38.3801 18.4406 39.3113 20.6358 39.3113 23.3224C39.3113 32.7738 33.6968 34.8548 28.3525 35.464C29.2133 36.2276 29.9804 37.7252 29.9804 40.021C29.9804 43.3135 29.9526 45.9634 29.9526 46.7739C29.9526 47.4288 30.3846 48.1961 31.6011 47.9544C41.132 44.697 48 35.4762 48 24.6076C48 11.0169 37.2546 0 24.0002 0ZM8.98886 35.0541C8.936 35.1763 8.74841 35.213 8.57751 35.129C8.40344 35.0488 8.30567 34.8821 8.3621 34.7594C8.41377 34.6335 8.60176 34.5985 8.77543 34.6828C8.94991 34.7631 9.04926 34.9314 8.98886 35.0541ZM10.1694 36.1341C10.0549 36.2429 9.83118 36.1924 9.67936 36.0204C9.52238 35.8489 9.49297 35.6194 9.60902 35.509C9.72705 35.4002 9.94405 35.4512 10.1014 35.6227C10.2584 35.7963 10.289 36.0241 10.1694 36.1341ZM10.9793 37.516C10.8322 37.6207 10.5918 37.5225 10.4432 37.3037C10.2961 37.0849 10.2961 36.8224 10.4463 36.7173C10.5954 36.6122 10.8322 36.7067 10.9829 36.9239C11.1295 37.1464 11.1295 37.4088 10.9793 37.516ZM12.349 39.1164C12.2175 39.2651 11.9373 39.2252 11.7322 39.0223C11.5223 38.8238 11.4639 38.5422 11.5959 38.3935C11.729 38.2444 12.0108 38.2863 12.2175 38.4876C12.4257 38.6857 12.4893 38.9693 12.349 39.1164ZM14.1192 39.6567C14.0612 39.8494 13.7913 39.937 13.5195 39.8551C13.248 39.7708 13.0704 39.545 13.1252 39.3502C13.1817 39.1563 13.4527 39.065 13.7266 39.1526C13.9976 39.2366 14.1757 39.4607 14.1192 39.6567ZM16.1338 39.8858C16.1406 40.0888 15.91 40.2571 15.6247 40.2607C15.3377 40.2673 15.1056 40.103 15.1025 39.9034C15.1025 39.6984 15.3278 39.5317 15.6148 39.5268C15.9001 39.5211 16.1338 39.6841 16.1338 39.8858ZM18.1129 39.8081C18.1471 40.0061 17.9488 40.2094 17.6654 40.2636C17.3868 40.3158 17.1289 40.1936 17.0935 39.9971C17.0589 39.7942 17.2608 39.5909 17.539 39.5383C17.8228 39.4878 18.0767 39.6068 18.1129 39.8081Z" fill="#161614"/>
</g>
<defs>
<clipPath id="clip0_273_520">
<rect width="48" height="48" fill="white"/>
</clipPath>
</defs>
</svg>
