<svg width="33" height="33" viewBox="0 0 33 33" fill="none" xmlns="http://www.w3.org/2000/svg">
<path d="M16.763 6.5161C16.6699 6.42709 16.5461 6.37741 16.4173 6.37741C16.2886 6.37741 16.1648 6.42709 16.0717 6.5161L4.56546 17.508C4.51659 17.5547 4.47772 17.6109 4.45118 17.6731C4.42465 17.7353 4.41101 17.8022 4.41109 17.8699L4.40921 28.1861C4.40921 28.7165 4.61992 29.2252 4.995 29.6003C5.37007 29.9754 5.87878 30.1861 6.40921 30.1861H12.4155C12.6807 30.1861 12.935 30.0807 13.1226 29.8932C13.3101 29.7057 13.4155 29.4513 13.4155 29.1861V20.6861C13.4155 20.5535 13.4681 20.4263 13.5619 20.3325C13.6557 20.2388 13.7829 20.1861 13.9155 20.1861H18.9155C19.0481 20.1861 19.1752 20.2388 19.269 20.3325C19.3628 20.4263 19.4155 20.5535 19.4155 20.6861V29.1861C19.4155 29.4513 19.5208 29.7057 19.7084 29.8932C19.8959 30.0807 20.1502 30.1861 20.4155 30.1861H26.4192C26.9496 30.1861 27.4584 29.9754 27.8334 29.6003C28.2085 29.2252 28.4192 28.7165 28.4192 28.1861V17.8699C28.4193 17.8022 28.4056 17.7353 28.3791 17.6731C28.3526 17.6109 28.3137 17.5547 28.2648 17.508L16.763 6.5161Z" fill="white"/>
<path d="M31.0973 15.4455L26.4223 10.973V4.1861C26.4223 3.92088 26.317 3.66653 26.1294 3.47899C25.9419 3.29145 25.6875 3.1861 25.4223 3.1861H22.4223C22.1571 3.1861 21.9028 3.29145 21.7152 3.47899C21.5277 3.66653 21.4223 3.92088 21.4223 4.1861V6.1861L17.8023 2.72485C17.4636 2.38235 16.9598 2.1861 16.4155 2.1861C15.873 2.1861 15.3705 2.38235 15.0317 2.72547L1.73796 15.4442C1.34921 15.8192 1.30046 16.4361 1.65421 16.8423C1.74304 16.9449 1.85181 17.0283 1.9739 17.0875C2.09598 17.1466 2.22883 17.1803 2.36436 17.1865C2.49989 17.1927 2.63526 17.1713 2.76224 17.1235C2.88921 17.0757 3.00514 17.0026 3.10296 16.9086L16.0717 4.5161C16.1648 4.42708 16.2886 4.3774 16.4173 4.3774C16.5461 4.3774 16.6699 4.42708 16.763 4.5161L29.733 16.9086C29.924 17.0918 30.1799 17.1918 30.4446 17.1866C30.7092 17.1815 30.9611 17.0716 31.1448 16.8811C31.5286 16.4836 31.4967 15.8273 31.0973 15.4455Z" fill="white"/>
</svg>
