<svg width="48" height="48" viewBox="0 0 48 48" fill="none" xmlns="http://www.w3.org/2000/svg">
<g clip-path="url(#clip0_273_477)">
<path d="M24 48C37.2548 48 48 37.2548 48 24C48 10.7452 37.2548 0 24 0C10.7452 0 0 10.7452 0 24C0 37.2548 10.7452 48 24 48Z" fill="#007AB9"/>
<path d="M38.3398 25.9312V35.8258H32.6031V26.5943C32.6031 24.2763 31.7748 22.6934 29.6978 22.6934C28.1127 22.6934 27.171 23.7591 26.7552 24.791C26.6042 25.1598 26.5652 25.6719 26.5652 26.1891V35.8254H20.8281C20.8281 35.8254 20.9051 20.1902 20.8281 18.5718H26.5657V21.0168C26.5541 21.036 26.5379 21.0548 26.5276 21.0732H26.5657V21.0168C27.328 19.8437 28.6877 18.1666 31.7359 18.1666C35.5102 18.1666 38.3398 20.6326 38.3398 25.9312ZM14.8266 10.2549C12.8642 10.2549 11.5803 11.5431 11.5803 13.2355C11.5803 14.8921 12.827 16.2174 14.7513 16.2174H14.7886C16.7895 16.2174 18.0336 14.8921 18.0336 13.2355C17.9955 11.5431 16.7895 10.2549 14.8266 10.2549ZM11.9213 35.8258H17.6563V18.5718H11.9213V35.8258Z" fill="#F1F2F2"/>
</g>
<defs>
<clipPath id="clip0_273_477">
<rect width="48" height="48" fill="white"/>
</clipPath>
</defs>
</svg>
