<svg width="202" height="74" viewBox="0 0 202 74" fill="none" xmlns="http://www.w3.org/2000/svg">
<circle cx="37" cy="37" r="36" stroke="#003AFF" stroke-width="1.66667"/>
<circle cx="29.8" cy="37.0001" r="28.8" stroke="#003AFF" stroke-width="1.66667"/>
<circle cx="22.6" cy="37" r="21.6" stroke="#003AFF" stroke-width="1.66667"/>
<circle cx="15.4" cy="37" r="14.4" stroke="#003AFF" stroke-width="1.66667"/>
<circle cx="8.2" cy="36.9999" r="7.2" stroke="#003AFF" stroke-width="1.66667"/>
<path d="M98.74 48V27H105.52C112.18 27 115.45 30.78 115.45 37.5C115.45 44.19 112.18 48 105.52 48H98.74ZM101.2 45.81H105.31C110.62 45.81 112.96 43.11 112.96 37.5C112.96 31.89 110.62 29.19 105.31 29.19H101.2V45.81ZM125.236 48.3C121.366 48.3 117.736 45.75 117.736 40.2C117.736 34.65 121.366 32.1 125.236 32.1C129.106 32.1 132.736 34.65 132.736 40.2C132.736 45.75 129.106 48.3 125.236 48.3ZM120.016 40.2C120.016 44.4 122.506 46.26 125.236 46.26C127.936 46.26 130.426 44.4 130.426 40.2C130.426 36 127.936 34.11 125.236 34.11C122.506 34.11 120.016 36 120.016 40.2ZM135.449 53.7V32.4H137.849V34.98C138.929 33.09 141.059 32.1 143.369 32.1C146.969 32.1 150.389 34.56 150.389 40.2C150.389 45.81 146.969 48.3 143.369 48.3C141.059 48.3 138.929 47.28 137.849 45.39V53.7H135.449ZM137.729 40.2C137.729 44.34 140.279 46.26 142.919 46.26C145.589 46.26 148.109 44.34 148.109 40.2C148.109 36.03 145.589 34.11 142.919 34.11C140.279 34.11 137.729 36.03 137.729 40.2ZM153.086 53.7V32.4H155.486V34.98C156.566 33.09 158.696 32.1 161.006 32.1C164.606 32.1 168.026 34.56 168.026 40.2C168.026 45.81 164.606 48.3 161.006 48.3C158.696 48.3 156.566 47.28 155.486 45.39V53.7H153.086ZM155.366 40.2C155.366 44.34 157.916 46.26 160.556 46.26C163.226 46.26 165.746 44.34 165.746 40.2C165.746 36.03 163.226 34.11 160.556 34.11C157.916 34.11 155.366 36.03 155.366 40.2ZM170.722 48V27H173.122V48H170.722ZM183.242 48.3C178.952 48.3 175.832 45.72 175.832 40.23C175.832 34.56 179.132 32.1 183.122 32.1C187.142 32.1 190.082 34.62 190.082 39.84C190.082 40.35 190.052 40.65 189.992 40.95H178.142C178.322 44.61 180.122 46.38 183.272 46.38C185.192 46.38 186.932 45.75 187.682 43.62H189.872C188.852 47.07 186.212 48.3 183.242 48.3ZM178.142 39.12H187.772C187.742 35.85 185.972 33.99 183.092 33.99C180.362 33.99 178.382 35.64 178.142 39.12ZM195.183 39.78V48H192.783V32.4H195.183V35.88H195.243C195.663 34.26 197.133 32.28 200.163 32.28C200.553 32.28 200.973 32.31 201.333 32.43V34.47C200.943 34.41 200.583 34.38 200.193 34.38C197.043 34.38 195.183 36.45 195.183 39.78Z" fill="#003AFF"/>
</svg>
