<svg width="48" height="48" viewBox="0 0 48 48" fill="none" xmlns="http://www.w3.org/2000/svg">
<g clip-path="url(#clip0_273_497)">
<path d="M24.0003 47.9996C37.255 47.9996 48.0001 37.2545 48.0001 23.9998C48.0001 10.7451 37.255 0 24.0003 0C10.7456 0 0.000488281 10.7451 0.000488281 23.9998C0.000488281 37.2545 10.7456 47.9996 24.0003 47.9996Z" fill="#55ACEE"/>
<path d="M38.7009 17.2477C37.6724 17.7038 36.5661 18.0123 35.4058 18.15C36.5905 17.4403 37.4996 16.3172 37.9287 14.9769C36.8202 15.6344 35.5919 16.1115 34.2858 16.3686C33.2394 15.2541 31.7484 14.5576 30.0975 14.5576C26.9299 14.5576 24.3608 17.1267 24.3608 20.2942C24.3608 20.7439 24.4117 21.1815 24.5101 21.6017C19.7425 21.3625 15.5152 19.0788 12.6857 15.6071C12.1919 16.4541 11.9087 17.4403 11.9087 18.4914C11.9087 20.4812 12.9222 22.2378 14.4607 23.2663C13.5208 23.2368 12.6356 22.9788 11.8625 22.548C11.8621 22.5724 11.8621 22.5968 11.8621 22.6207C11.8621 25.4003 13.8403 27.7186 16.4641 28.2453C15.9833 28.377 15.4755 28.4468 14.9531 28.4468C14.5826 28.4468 14.2237 28.4112 13.8737 28.3445C14.6036 30.6231 16.7217 32.2817 19.2326 32.3284C17.2689 33.8672 14.7957 34.784 12.1072 34.784C11.6452 34.784 11.1874 34.7571 10.7395 34.7036C13.2769 36.3319 16.293 37.2812 19.5325 37.2812C30.0842 37.2812 35.8546 28.54 35.8546 20.9586C35.8546 20.7101 35.8491 20.4624 35.8379 20.2168C36.9597 19.4082 37.9321 18.3981 38.7009 17.2477Z" fill="#F1F2F2"/>
</g>
<defs>
<clipPath id="clip0_273_497">
<rect width="48" height="48" fill="white"/>
</clipPath>
</defs>
</svg>
